<svg width="24" height="24" viewBox="0 0 24 24" fill="none" xmlns="http://www.w3.org/2000/svg">
<path d="M15.9998 8.99989C15.9998 12.8698 12.8698 15.9998 8.99989 15.9998C8.6799 15.9998 8.3699 15.9798 8.06991 15.9298C4.63996 15.4798 2 12.5498 2 8.99989C2 5.12995 5.12995 2 8.99989 2C12.5498 2 15.4798 4.63996 15.9298 8.06991C15.9798 8.3699 15.9998 8.6799 15.9998 8.99989Z" stroke="currentColor" stroke-width="1.5" stroke-linecap="round" stroke-linejoin="round"/>
<path d="M22.0001 15.0002C22.0001 18.8701 18.8701 22.0001 15.0002 22.0001C11.4503 22.0001 8.52031 19.3601 8.07031 15.9302C8.37031 15.9802 8.6803 16.0002 9.0003 16.0002C12.8702 16.0002 16.0002 12.8702 16.0002 9.0003C16.0002 8.6803 15.9802 8.37031 15.9302 8.07031C19.3601 8.52031 22.0001 11.4503 22.0001 15.0002Z" stroke="currentColor" stroke-width="1.5" stroke-linecap="round" stroke-linejoin="round"/>
<path d="M14.1483 14.1199L15.4583 15.4099" stroke="currentColor" stroke-width="1.5" stroke-linecap="round" stroke-linejoin="round"/>
<path d="M17 12L16 11" stroke="currentColor" stroke-width="1.5" stroke-linecap="round" stroke-linejoin="round"/>
<path d="M12 16.9997L11 15.9998" stroke="currentColor" stroke-width="1.5" stroke-linecap="round" stroke-linejoin="round"/>
</svg>
