<svg width="24" height="24" viewBox="0 0 24 24" fill="none" xmlns="http://www.w3.org/2000/svg">
<path d="M17.7143 10H6.28571C5.02335 10 4 10.8954 4 12V20C4 21.1046 5.02335 22 6.28571 22H17.7143C18.9767 22 20 21.1046 20 20V12C20 10.8954 18.9767 10 17.7143 10Z" stroke="currentColor" stroke-width="1.5"/>
<path d="M7 10V6C7 4.93913 7.52678 3.92172 8.46447 3.17157C9.40215 2.42143 10.6739 2 12 2C13.3261 2 14.5979 2.42143 15.5355 3.17157C16.4732 3.92172 17 4.93913 17 6V10" stroke="currentColor" stroke-width="1.5" stroke-linecap="round"/>
<path d="M12 14V17" stroke="currentColor" stroke-width="1.5" stroke-linecap="round"/>
</svg>
