<svg width="24" height="24" viewBox="0 0 24 24" fill="none" xmlns="http://www.w3.org/2000/svg">
<path d="M9.5 3.5H4.5C3.94772 3.5 3.5 3.94772 3.5 4.5V9.5C3.5 10.0523 3.94772 10.5 4.5 10.5H9.5C10.0523 10.5 10.5 10.0523 10.5 9.5V4.5C10.5 3.94772 10.0523 3.5 9.5 3.5Z" stroke="currentColor" stroke-width="1.5" stroke-linecap="round" stroke-linejoin="round"/>
<path d="M19.5 3.5H14.5C13.9477 3.5 13.5 3.94772 13.5 4.5V9.5C13.5 10.0523 13.9477 10.5 14.5 10.5H19.5C20.0523 10.5 20.5 10.0523 20.5 9.5V4.5C20.5 3.94772 20.0523 3.5 19.5 3.5Z" stroke="currentColor" stroke-width="1.5" stroke-linecap="round" stroke-linejoin="round"/>
<path d="M9.5 13.5H4.5C3.94772 13.5 3.5 13.9477 3.5 14.5V19.5C3.5 20.0523 3.94772 20.5 4.5 20.5H9.5C10.0523 20.5 10.5 20.0523 10.5 19.5V14.5C10.5 13.9477 10.0523 13.5 9.5 13.5Z" stroke="currentColor" stroke-width="1.5" stroke-linecap="round" stroke-linejoin="round"/>
<path d="M19.5 13.5H14.5C13.9477 13.5 13.5 13.9477 13.5 14.5V19.5C13.5 20.0523 13.9477 20.5 14.5 20.5H19.5C20.0523 20.5 20.5 20.0523 20.5 19.5V14.5C20.5 13.9477 20.0523 13.5 19.5 13.5Z" stroke="currentColor" stroke-width="1.5" stroke-linecap="round" stroke-linejoin="round"/>
</svg>
