<svg width="24" height="24" viewBox="0 0 24 24" fill="none" xmlns="http://www.w3.org/2000/svg">
<path d="M18.5 3.5H10.5C9.39543 3.5 8.5 4.39543 8.5 5.5V13.5C8.5 14.6046 9.39543 15.5 10.5 15.5H18.5C19.6046 15.5 20.5 14.6046 20.5 13.5V5.5C20.5 4.39543 19.6046 3.5 18.5 3.5Z" stroke="currentColor" stroke-width="1.5" stroke-linecap="round" stroke-linejoin="round"/>
<path d="M5.5 8.5H4.5C4.23478 8.5 3.98043 8.60536 3.79289 8.79289C3.60536 8.98043 3.5 9.23478 3.5 9.5V19.5C3.5 19.7652 3.60536 20.0196 3.79289 20.2071C3.98043 20.3946 4.23478 20.5 4.5 20.5H15.5C15.7652 20.5 16.0196 20.3946 16.2071 20.2071C16.3946 20.0196 16.5 19.7652 16.5 19.5V18.5" stroke="currentColor" stroke-width="1.5" stroke-linecap="round" stroke-linejoin="round"/>
</svg>
