<svg width="24" height="24" viewBox="0 0 24 24" fill="none" xmlns="http://www.w3.org/2000/svg">
<style>
  svg { color: #0E0E11; }
  @media (prefers-color-scheme: dark) { svg { color: #FFFFFF; } }
</style>
<g clip-path="url(#clip0_46_1151)">
<path d="M1.68554 12.3338L5.44559 0.317107H7.66597L4.70007 9.96384L3.6304 9.74687L1.68554 15.9054V12.3338ZM0 0.317107H2.22038V23.6829H0V0.317107ZM3.09556 10.1474L4.52179 6.94298L7.87666 23.6829H5.65629L3.09556 10.1474Z" fill="currentColor"/>
<path d="M9.06951 0.317107H12.9106C14.0019 0.317107 14.823 0.611961 15.3741 1.20167C15.9251 1.79138 16.2006 2.70932 16.2006 3.95549V20.0445C16.2006 21.2907 15.9197 22.2086 15.3579 22.7983C14.8068 23.388 13.9911 23.6829 12.9106 23.6829H9.06951V0.317107ZM12.6027 21.9805C13.024 21.9805 13.359 21.8136 13.6075 21.4798C13.856 21.146 13.9803 20.6231 13.9803 19.911V4.05563C13.9803 3.34353 13.856 2.82615 13.6075 2.50348C13.3698 2.18081 13.0348 2.01947 12.6027 2.01947H11.2899V21.9805H12.6027Z" fill="currentColor"/>
<path d="M20.402 24C19.2459 24 18.3599 23.6885 17.744 23.0654C17.139 22.4423 16.8365 21.5355 16.8365 20.3449V15.5716L19.0244 14.9875V20.3449C19.0136 21.0125 19.1271 21.5076 19.3648 21.8303C19.6133 22.153 19.9644 22.3143 20.4182 22.3143C20.71 22.3143 20.9585 22.2476 21.1638 22.114C21.369 21.9694 21.5257 21.7524 21.6338 21.4631C21.7418 21.1627 21.7958 20.79 21.7958 20.3449V18.1419C21.7958 17.2072 21.6824 16.3839 21.4555 15.6718C21.2394 14.9485 20.9693 14.3255 20.6451 13.8025C20.321 13.2796 19.8888 12.662 19.3486 11.9499C18.7867 11.2267 18.3437 10.5925 18.0196 10.0473C17.6954 9.50209 17.4145 8.85118 17.1768 8.09458C16.9499 7.32684 16.8365 6.44784 16.8365 5.45758V3.65508C16.8365 2.85396 16.9607 2.18081 17.2092 1.6356C17.4577 1.0904 17.8359 0.684284 18.3437 0.417246C18.8515 0.139082 19.489 0 20.2562 0C20.9693 0 21.5851 0.139082 22.1038 0.417246C22.6224 0.684284 23.0114 1.09597 23.2707 1.65229C23.5408 2.1975 23.6759 2.86509 23.6759 3.65508V7.76078L21.4717 8.32823L21.4879 3.65508C21.4771 2.99861 21.3636 2.50904 21.1475 2.18637C20.9315 1.85257 20.6397 1.68567 20.2724 1.68567C20.0022 1.68567 19.7753 1.758 19.5917 1.90264C19.4188 2.03616 19.2783 2.25313 19.1703 2.55355C19.073 2.84284 19.0244 3.21001 19.0244 3.65508V4.99026C19.0244 5.85814 19.1325 6.63143 19.3486 7.31015C19.5647 7.97775 19.824 8.56745 20.1265 9.07928C20.4398 9.57997 20.8612 10.1752 21.3907 10.8651C21.9633 11.6328 22.4171 12.2949 22.7521 12.8512C23.0978 13.4075 23.3895 14.0862 23.6272 14.8873C23.8757 15.6885 24 16.612 24 17.6579V20.3449C24 21.146 23.8595 21.8192 23.5786 22.3644C23.3085 22.9096 22.9033 23.3213 22.3631 23.5994C21.8336 23.8665 21.18 24 20.402 24Z" fill="currentColor"/>
</g>
<defs>
<clipPath id="clip0_46_1151">
<rect width="24" height="24" fill="currentColor"/>
</clipPath>
</defs>
</svg>
