<svg width="24" height="24" viewBox="0 0 24 24" fill="none" xmlns="http://www.w3.org/2000/svg">
<path d="M0 0.5C0 0.223857 0.223858 0 0.5 0H23.5C23.7761 0 24 0.223858 24 0.5V23.5C24 23.7761 23.7761 24 23.5 24H0.5C0.223857 24 0 23.7761 0 23.5V0.5Z" fill="#FAFAFA"/>
<path d="M21 8.85V7C21 4.79086 19.2091 3 17 3H15.15M21 15.15V17C21 19.2091 19.2091 21 17 21H15.15M8.85 21H7C4.79086 21 3 19.2091 3 17V15.15M3 8.85V7C3 4.79086 4.79086 3 7 3H8.85" stroke="#121215" stroke-width="1.5" stroke-linecap="round"/>
<path d="M22 12L2 12" stroke="#121215" stroke-width="1.5" stroke-linecap="round" stroke-linejoin="round"/>
<path d="M18 15C18 16.6569 16.6569 18 15 18H9C7.34315 18 6 16.6569 6 15V13.75H18V15ZM18 12.25H6V11.75H18V12.25ZM15 6C16.6569 6 18 7.34315 18 9V10.25H6V9C6 7.34315 7.34315 6 9 6H15Z" fill="#121215"/>
</svg>
