<svg width="128" height="32" viewBox="0 0 128 32" fill="none" xmlns="http://www.w3.org/2000/svg">
<path fill-rule="evenodd" clip-rule="evenodd" d="M30.75 0C35.2775 0 37.5174 2.47684 37.5176 7.4082V24.5918C37.5174 29.5232 35.2775 32 30.75 32C26.2462 31.9999 24.006 29.5231 24.0059 24.5918V7.4082C24.006 2.47691 26.2462 6.78081e-05 30.75 0ZM30.7734 2.94531C28.9108 2.94547 28.0147 4.30687 28.0146 7.11816V24.9482C28.0146 27.6929 28.9107 29.0321 30.7734 29.0322C32.6128 29.0322 33.5088 27.693 33.5088 24.9482V7.11816C33.5087 4.30671 32.6127 2.94531 30.7734 2.94531Z" fill="white"/>
<path d="M75.3193 0C79.328 8.53772e-05 81.3799 2.05355 81.3799 6.65039V9.46191L77.6768 10.1309V6.78418C77.6768 3.90552 76.875 2.83398 75.2715 2.83398C73.9041 2.83418 73.126 3.72675 73.126 5.35547C73.126 7.38615 73.7864 9.3723 75.9795 12.6973L78.125 15.9551C80.2709 19.2354 81.875 22.1371 81.875 25.6406C81.8748 29.8133 79.6343 32 75.5312 32C71.4045 32 69.0703 29.7682 69.0703 24.6357V21.5791L72.9141 20.8867V24.502C72.9141 27.9162 73.7868 29.1436 75.6025 29.1436C77.1349 29.1433 77.9833 28.0502 77.9834 26.0869C77.9834 23.6769 77.0167 21.3113 74.8945 18.0088L72.7725 14.6836C70.603 11.3364 69.3526 8.85927 69.3525 5.86914C69.3761 2.00861 71.4991 0 75.3193 0Z" fill="white"/>
<path fill-rule="evenodd" clip-rule="evenodd" d="M106.258 0C110.785 0 113.025 2.47684 113.025 7.4082V24.5918C113.025 29.5232 110.785 32 106.258 32C101.754 32 99.5138 29.5231 99.5137 24.5918V7.4082C99.5138 2.47688 101.754 4.05364e-05 106.258 0ZM106.281 2.94531C104.419 2.94544 103.523 4.30684 103.522 7.11816V24.9482C103.522 27.6929 104.418 29.0321 106.281 29.0322C108.121 29.0322 109.017 27.693 109.017 24.9482V7.11816C109.017 4.30671 108.121 2.94531 106.281 2.94531Z" fill="white"/>
<path d="M5.84863 17.3613C6.13159 19.9943 6.29671 22.2035 6.48535 25.7959H6.93262C7.09768 22.2034 7.26308 19.9496 7.52246 17.3389L9.33789 0.378906H13.6299L15.4463 17.3389C15.7293 19.9496 15.8702 22.2034 16.0117 25.7959H16.4834C16.672 22.2035 16.8372 19.972 17.1201 17.3613L18.9834 0.378906H22.8271L18.7002 31.6211H14.0078L12.3799 15.9326C12.1205 13.4112 11.9085 11.0682 11.6963 7.36426H11.2246C11.0124 11.0684 10.8004 13.4342 10.541 15.9111L8.86621 31.6211H4.2207L0 0.378906H3.98535L5.84863 17.3613Z" fill="white"/>
<path fill-rule="evenodd" clip-rule="evenodd" d="M46.2197 0.378906C50.4879 0.378946 52.5635 2.43271 52.5635 6.62793V9.75195C52.5634 12.9206 51.1951 14.7062 48.5068 15.1748V15.5312C50.5584 15.9999 51.4549 16.9819 51.8086 20.9316L52.1621 24.8594C52.5394 28.809 52.8694 30.4384 53.624 31.1748L53.5303 31.6211H49.167C48.6954 30.2822 48.4832 28.6972 48.2002 24.9482L47.9414 21.1992C47.6584 17.473 47.0214 16.7813 45.2295 16.7812H44.1211V31.6211H40.1357V0.378906H46.2197ZM44.1211 13.835H45.7949C47.7049 13.835 48.578 12.876 48.5781 10.667V6.58301C48.5781 4.30686 47.705 3.3916 45.7949 3.3916H44.1211V13.835Z" fill="white"/>
<path d="M59.3076 5.48926C59.3076 8.30097 59.1661 10.5109 58.6709 14.126L59.0947 14.2148L64.3535 0.378906H68.3154L63.7402 11.5596L68.4102 31.6211H64.2354L61.0283 15.4648L59.3076 19.1465V31.6211H55.3223V0.378906H59.3076V5.48926Z" fill="white"/>
<path d="M88.0762 13.4111H92.9346V0.378906H96.9199V31.6211H92.9346V16.4463H88.0762V31.6211H84.0918V0.378906H88.0762V13.4111Z" fill="white"/>
<path fill-rule="evenodd" clip-rule="evenodd" d="M121.656 0.378906C125.948 0.378906 128 2.52148 128 6.96191V13.6123C128 17.9637 125.901 20.1064 121.656 20.1064H119.629V31.6211H115.644V0.378906H121.656ZM119.629 17.1377H121.374C123.213 17.1376 124.038 16.2003 124.038 13.9912V6.56055C124.038 4.30696 123.213 3.36928 121.374 3.36914H119.629V17.1377Z" fill="white"/>
</svg>
