<svg width="24" height="24" viewBox="0 0 24 24" fill="none" xmlns="http://www.w3.org/2000/svg">
<path d="M8.96641 13.4496L15.5232 17.2704M15.5136 6.72962L8.96641 10.5504M20.88 5.28002C20.88 6.8706 19.5906 8.16002 18 8.16002C16.4094 8.16002 15.12 6.8706 15.12 5.28002C15.12 3.68944 16.4094 2.40002 18 2.40002C19.5906 2.40002 20.88 3.68944 20.88 5.28002ZM9.36001 12C9.36001 13.5906 8.07059 14.88 6.48001 14.88C4.88943 14.88 3.60001 13.5906 3.60001 12C3.60001 10.4094 4.88943 9.12002 6.48001 9.12002C8.07059 9.12002 9.36001 10.4094 9.36001 12ZM20.88 18.72C20.88 20.3106 19.5906 21.6 18 21.6C16.4094 21.6 15.12 20.3106 15.12 18.72C15.12 17.1294 16.4094 15.84 18 15.84C19.5906 15.84 20.88 17.1294 20.88 18.72Z" stroke="currentColor" stroke-width="1.5" stroke-linecap="round" stroke-linejoin="round"/>
</svg>
