<svg width="24" height="24" viewBox="0 0 24 24" fill="none" xmlns="http://www.w3.org/2000/svg">
<path d="M12 7.5C13.2426 7.5 14.25 6.49264 14.25 5.25C14.25 4.00736 13.2426 3 12 3C10.7574 3 9.75 4.00736 9.75 5.25C9.75 6.49264 10.7574 7.5 12 7.5Z" stroke="currentColor" stroke-width="1.5" stroke-linecap="round" stroke-linejoin="round"/>
<path d="M5.25 19.3125C6.49264 19.3125 7.5 18.3051 7.5 17.0625C7.5 15.8199 6.49264 14.8125 5.25 14.8125C4.00736 14.8125 3 15.8199 3 17.0625C3 18.3051 4.00736 19.3125 5.25 19.3125Z" stroke="currentColor" stroke-width="1.5" stroke-linecap="round" stroke-linejoin="round"/>
<path d="M18.75 19.3125C19.9926 19.3125 21 18.3051 21 17.0625C21 15.8199 19.9926 14.8125 18.75 14.8125C17.5074 14.8125 16.5 15.8199 16.5 17.0625C16.5 18.3051 17.5074 19.3125 18.75 19.3125Z" stroke="currentColor" stroke-width="1.5" stroke-linecap="round" stroke-linejoin="round"/>
<path d="M4.125 13.125C4.125 11.7426 4.48887 10.3847 5.18005 9.1875C5.87123 7.99035 6.86535 6.99622 8.0625 6.30505" stroke="currentColor" stroke-width="1.5" stroke-linecap="round" stroke-linejoin="round"/>
<path d="M15.9375 6.30505C17.1346 6.99622 18.1288 7.99035 18.8199 9.1875C19.5111 10.3846 19.875 11.7426 19.875 13.125" stroke="currentColor" stroke-width="1.5" stroke-linecap="round" stroke-linejoin="round"/>
<path d="M15.9375 19.9449C14.7403 20.6361 13.3824 21 12 21C10.6176 21 9.25965 20.6361 8.0625 19.9449" stroke="currentColor" stroke-width="1.5" stroke-linecap="round" stroke-linejoin="round"/>
</svg>
