<svg width="24" height="24" viewBox="0 0 24 24" fill="none" xmlns="http://www.w3.org/2000/svg">
<path d="M12 22.0007C17.5228 22.0007 22 17.5236 22 12.0007C22 6.47789 17.5228 2.00073 12 2.00073C6.47715 2.00073 2 6.47789 2 12.0007C2 17.5236 6.47715 22.0007 12 22.0007Z" stroke="currentColor" stroke-width="1.5" stroke-linecap="round" stroke-linejoin="round"/>
<path d="M7.6 10.2007C8.48366 10.2007 9.2 9.48439 9.2 8.60073C9.2 7.71708 8.48366 7.00073 7.6 7.00073C6.71634 7.00073 6 7.71708 6 8.60073C6 9.48439 6.71634 10.2007 7.6 10.2007Z" stroke="currentColor" stroke-width="1.5" stroke-linecap="round" stroke-linejoin="round"/>
<path d="M15.6 11.6007C16.7046 11.6007 17.6 10.7053 17.6 9.60071C17.6 8.49614 16.7046 7.60071 15.6 7.60071C14.4954 7.60071 13.6 8.49614 13.6 9.60071C13.6 10.7053 14.4954 11.6007 15.6 11.6007Z" stroke="currentColor" stroke-width="1.5" stroke-linecap="round" stroke-linejoin="round"/>
<path d="M10.6 17.6007C11.7046 17.6007 12.6 16.7053 12.6 15.6007C12.6 14.4961 11.7046 13.6007 10.6 13.6007C9.49544 13.6007 8.60001 14.4961 8.60001 15.6007C8.60001 16.7053 9.49544 17.6007 10.6 17.6007Z" stroke="currentColor" stroke-width="1.5" stroke-linecap="round" stroke-linejoin="round"/>
<path d="M16.1 16.3007C16.7628 16.3007 17.3 15.7634 17.3 15.1007C17.3 14.438 16.7628 13.9007 16.1 13.9007C15.4373 13.9007 14.9 14.438 14.9 15.1007C14.9 15.7634 15.4373 16.3007 16.1 16.3007Z" stroke="currentColor" stroke-width="1.5" stroke-linecap="round" stroke-linejoin="round"/>
</svg>
