<svg width="24" height="24" viewBox="0 0 24 24" fill="none" xmlns="http://www.w3.org/2000/svg">
<path d="M20.0795 3.11133H16.8471C16.4009 3.11133 16.0391 3.47312 16.0391 3.91941V7.15173C16.0391 7.59802 16.4009 7.95981 16.8471 7.95981H20.0795C20.5258 7.95981 20.8875 7.59802 20.8875 7.15173V3.91941C20.8875 3.47312 20.5258 3.11133 20.0795 3.11133Z" stroke="currentColor" stroke-width="1.5" stroke-linecap="round" stroke-linejoin="round"/>
<path d="M7.14978 3.11133H3.91746C3.47117 3.11133 3.10938 3.47312 3.10938 3.91941V7.15173C3.10938 7.59802 3.47117 7.95981 3.91746 7.95981H7.14978C7.59607 7.95981 7.95786 7.59802 7.95786 7.15173V3.91941C7.95786 3.47312 7.59607 3.11133 7.14978 3.11133Z" stroke="currentColor" stroke-width="1.5" stroke-linecap="round" stroke-linejoin="round"/>
<path d="M20.0795 16.041H16.8471C16.4009 16.041 16.0391 16.4028 16.0391 16.8491V20.0814C16.0391 20.5277 16.4009 20.8895 16.8471 20.8895H20.0795C20.5258 20.8895 20.8875 20.5277 20.8875 20.0814V16.8491C20.8875 16.4028 20.5258 16.041 20.0795 16.041Z" stroke="currentColor" stroke-width="1.5" stroke-linecap="round" stroke-linejoin="round"/>
<path d="M7.14978 16.041H3.91746C3.47117 16.041 3.10938 16.4028 3.10938 16.8491V20.0814C3.10938 20.5277 3.47117 20.8895 3.91746 20.8895H7.14978C7.59607 20.8895 7.95786 20.5277 7.95786 20.0814V16.8491C7.95786 16.4028 7.59607 16.041 7.14978 16.041Z" stroke="currentColor" stroke-width="1.5" stroke-linecap="round" stroke-linejoin="round"/>
<path d="M5.53516 16.0408V7.95996" stroke="currentColor" stroke-width="1.5" stroke-linecap="round" stroke-linejoin="round"/>
<path d="M16.0378 18.4648H7.95703" stroke="currentColor" stroke-width="1.5" stroke-linecap="round" stroke-linejoin="round"/>
<path d="M18.4648 7.95996V16.0408" stroke="currentColor" stroke-width="1.5" stroke-linecap="round" stroke-linejoin="round"/>
<path d="M7.95703 5.53613H16.0378" stroke="currentColor" stroke-width="1.5" stroke-linecap="round" stroke-linejoin="round"/>
</svg>
