<svg width="24" height="24" viewBox="0 0 24 24" fill="none" xmlns="http://www.w3.org/2000/svg">
<path d="M19.1969 7.4548V16.5448C19.0529 16.5178 18.8999 16.4998 18.7469 16.4998C17.5049 16.4998 16.4969 17.5078 16.4969 18.7498C16.4969 18.9028 16.5149 19.0558 16.5419 19.1998H7.45187C7.47887 19.0558 7.49687 18.9028 7.49687 18.7498C7.49687 17.5078 6.48887 16.4998 5.24687 16.4998C5.09387 16.4998 4.94087 16.5178 4.79688 16.5448V7.4548C4.94087 7.4818 5.09387 7.4998 5.24687 7.4998C6.48887 7.4998 7.49687 6.4918 7.49687 5.2498C7.49687 5.0968 7.47887 4.9438 7.45187 4.7998H16.5419C16.5149 4.9438 16.4969 5.0968 16.4969 5.2498C16.4969 6.4918 17.5049 7.4998 18.7469 7.4998C18.8999 7.4998 19.0529 7.4818 19.1969 7.4548Z" stroke="currentColor" stroke-width="1.5" stroke-linecap="round" stroke-linejoin="round"/>
<path d="M7.5 5.25C7.5 6.492 6.492 7.5 5.25 7.5C5.097 7.5 4.944 7.482 4.8 7.455C3.774 7.248 3 6.339 3 5.25C3 4.008 4.008 3 5.25 3C6.339 3 7.248 3.774 7.455 4.8C7.482 4.944 7.5 5.097 7.5 5.25Z" stroke="currentColor" stroke-width="1.5" stroke-linecap="round" stroke-linejoin="round"/>
<path d="M21 5.25C21 6.339 20.226 7.248 19.2 7.455C19.056 7.482 18.903 7.5 18.75 7.5C17.508 7.5 16.5 6.492 16.5 5.25C16.5 5.097 16.518 4.944 16.545 4.8C16.752 3.774 17.661 3 18.75 3C19.992 3 21 4.008 21 5.25Z" stroke="currentColor" stroke-width="1.5" stroke-linecap="round" stroke-linejoin="round"/>
<path d="M7.5 18.75C7.5 18.903 7.482 19.056 7.455 19.2C7.248 20.226 6.339 21 5.25 21C4.008 21 3 19.992 3 18.75C3 17.661 3.774 16.752 4.8 16.545C4.944 16.518 5.097 16.5 5.25 16.5C6.492 16.5 7.5 17.508 7.5 18.75Z" stroke="currentColor" stroke-width="1.5" stroke-linecap="round" stroke-linejoin="round"/>
<path d="M21 18.75C21 19.992 19.992 21 18.75 21C17.661 21 16.752 20.226 16.545 19.2C16.518 19.056 16.5 18.903 16.5 18.75C16.5 17.508 17.508 16.5 18.75 16.5C18.903 16.5 19.056 16.518 19.2 16.545C20.226 16.752 21 17.661 21 18.75Z" stroke="currentColor" stroke-width="1.5" stroke-linecap="round" stroke-linejoin="round"/>
</svg>
