<svg width="24" height="24" viewBox="0 0 24 24" fill="none" xmlns="http://www.w3.org/2000/svg">
<path d="M21.0013 5.69989C21.0013 6.56196 20.594 7.3293 19.9687 7.82191C19.514 8.18189 18.9362 8.39978 18.3014 8.39978C16.8047 8.39978 15.6016 7.19667 15.6016 5.69989C15.6016 5.06518 15.8194 4.49678 16.1794 4.03259H16.1889C16.672 3.40735 17.4394 3 18.3014 3C19.7982 3 21.0013 4.20311 21.0013 5.69989Z" stroke="currentColor" stroke-width="1.5" stroke-linecap="round" stroke-linejoin="round"/>
<path d="M8.39978 5.69989C8.39978 7.19667 7.19667 8.39978 5.69989 8.39978C5.06518 8.39978 4.49678 8.18189 4.03259 7.82191C3.40735 7.3293 3 6.56196 3 5.69989C3 4.20311 4.20311 3 5.69989 3C6.56196 3 7.3293 3.40735 7.82191 4.03259C8.18189 4.49678 8.39978 5.06518 8.39978 5.69989Z" stroke="currentColor" stroke-width="1.5" stroke-linecap="round" stroke-linejoin="round"/>
<path d="M21.0013 18.2995C21.0013 19.7963 19.7982 20.9994 18.3014 20.9994C17.4394 20.9994 16.672 20.592 16.1889 19.9668H16.1794C15.8194 19.5121 15.6016 18.9342 15.6016 18.2995C15.6016 16.8027 16.8047 15.5996 18.3014 15.5996C18.9362 15.5996 19.5046 15.8175 19.9687 16.1775V16.187C20.594 16.6701 21.0013 17.4374 21.0013 18.2995Z" stroke="currentColor" stroke-width="1.5" stroke-linecap="round" stroke-linejoin="round"/>
<path d="M8.39978 18.2995C8.39978 18.9342 8.18189 19.5026 7.82191 19.9668C7.3293 20.6015 6.56196 20.9994 5.69989 20.9994C4.20311 20.9994 3 19.7963 3 18.2995C3 17.4374 3.40735 16.6701 4.03259 16.187V16.1775C4.48731 15.8175 5.06518 15.5996 5.69989 15.5996C7.19667 15.5996 8.39978 16.8027 8.39978 18.2995Z" stroke="currentColor" stroke-width="1.5" stroke-linecap="round" stroke-linejoin="round"/>
<path d="M19.9667 16.1773C20.6298 14.9269 20.9993 13.5154 20.9993 11.9996C20.9993 10.4934 20.6298 9.07238 19.9667 7.82191M16.1774 19.9667C14.9269 20.6298 13.5154 20.9993 11.9996 20.9993C10.4934 20.9993 9.07238 20.6298 7.82191 19.9667M4.03259 16.1773C3.36946 14.9269 3 13.5154 3 11.9996C3 10.4934 3.36946 9.07238 4.03259 7.82191M7.82191 4.03259C9.07238 3.36946 10.4934 3 11.9996 3C13.5154 3 14.9269 3.36946 16.1774 4.03259" stroke="currentColor" stroke-width="1.5" stroke-linecap="round" stroke-linejoin="round"/>
</svg>
