<svg width="24" height="24" viewBox="0 0 24 24" fill="none" xmlns="http://www.w3.org/2000/svg">
<path d="M12 13.92C13.0604 13.92 13.92 13.0604 13.92 12C13.92 10.9396 13.0604 10.08 12 10.08C10.9396 10.08 10.08 10.9396 10.08 12C10.08 13.0604 10.9396 13.92 12 13.92Z" stroke="currentColor" stroke-width="1.5" stroke-linecap="round" stroke-linejoin="round"/>
<path d="M12 15.84C17.6333 15.84 22.2 14.1207 22.2 12C22.2 9.8792 17.6333 8.15997 12 8.15997C6.36668 8.15997 1.79999 9.8792 1.79999 12C1.79999 14.1207 6.36668 15.84 12 15.84Z" stroke="currentColor" stroke-width="1.5" stroke-linecap="round" stroke-linejoin="round"/>
<path d="M8.67445 13.92C11.4911 18.7986 15.2633 21.8938 17.1 20.8334C18.9366 19.7731 18.1422 14.9586 15.3255 10.08C12.5089 5.20139 8.73663 2.10613 6.89999 3.16652C5.06334 4.22691 5.8578 9.04139 8.67445 13.92Z" stroke="currentColor" stroke-width="1.5" stroke-linecap="round" stroke-linejoin="round"/>
<path d="M15.3255 13.92C18.1422 9.04141 18.9366 4.22692 17.1 3.16653C15.2634 2.10615 11.4911 5.20141 8.67446 10.08C5.85781 14.9586 5.06336 19.7731 6.9 20.8335C8.73664 21.8938 12.5089 18.7986 15.3255 13.92Z" stroke="currentColor" stroke-width="1.5" stroke-linecap="round" stroke-linejoin="round"/>
</svg>
