<svg width="24" height="24" viewBox="0 0 24 24" fill="none" xmlns="http://www.w3.org/2000/svg">
<path d="M2.35356 12.3543C2.15829 12.159 2.15829 11.8424 2.35356 11.6472L5.64646 8.35429C5.84172 8.15902 6.15831 8.15902 6.35357 8.35429L9.64647 11.6472C9.84174 11.8424 9.84174 12.159 9.64647 12.3543L6.35357 15.6472C6.15831 15.8424 5.84172 15.8424 5.64646 15.6472L2.35356 12.3543Z" fill="currentColor"/>
<path d="M8.35354 18.3543C8.15828 18.159 8.15828 17.8424 8.35354 17.6472L11.6464 14.3543C11.8417 14.159 12.1583 14.159 12.3536 14.3543L15.6465 17.6472C15.8417 17.8424 15.8417 18.159 15.6465 18.3543L12.3536 21.6472C12.1583 21.8424 11.8417 21.8424 11.6464 21.6472L8.35354 18.3543Z" fill="currentColor"/>
<path d="M8.35354 6.35428C8.15828 6.15902 8.15828 5.84244 8.35354 5.64718L11.6464 2.35428C11.8417 2.15902 12.1583 2.15902 12.3536 2.35428L15.6465 5.64718C15.8417 5.84244 15.8417 6.15902 15.6465 6.35428L12.3536 9.64718C12.1583 9.84244 11.8417 9.84244 11.6464 9.64718L8.35354 6.35428Z" fill="currentColor"/>
<path d="M14.3535 12.3543C14.1583 12.159 14.1583 11.8424 14.3535 11.6472L17.6464 8.35429C17.8417 8.15902 18.1583 8.15902 18.3535 8.35429L21.6464 11.6472C21.8417 11.8424 21.8417 12.159 21.6464 12.3543L18.3535 15.6472C18.1583 15.8424 17.8417 15.8424 17.6464 15.6472L14.3535 12.3543Z" fill="currentColor"/>
<path d="M2.35356 12.3543C2.15829 12.159 2.15829 11.8424 2.35356 11.6472L5.64646 8.35429C5.84172 8.15902 6.15831 8.15902 6.35357 8.35429L9.64647 11.6472C9.84174 11.8424 9.84174 12.159 9.64647 12.3543L6.35357 15.6472C6.15831 15.8424 5.84172 15.8424 5.64646 15.6472L2.35356 12.3543Z" stroke="currentColor" stroke-width="1.5"/>
<path d="M8.35354 18.3543C8.15828 18.159 8.15828 17.8424 8.35354 17.6472L11.6464 14.3543C11.8417 14.159 12.1583 14.159 12.3536 14.3543L15.6465 17.6472C15.8417 17.8424 15.8417 18.159 15.6465 18.3543L12.3536 21.6472C12.1583 21.8424 11.8417 21.8424 11.6464 21.6472L8.35354 18.3543Z" stroke="currentColor" stroke-width="1.5"/>
<path d="M8.35354 6.35428C8.15828 6.15902 8.15828 5.84244 8.35354 5.64718L11.6464 2.35428C11.8417 2.15902 12.1583 2.15902 12.3536 2.35428L15.6465 5.64718C15.8417 5.84244 15.8417 6.15902 15.6465 6.35428L12.3536 9.64718C12.1583 9.84244 11.8417 9.84244 11.6464 9.64718L8.35354 6.35428Z" stroke="currentColor" stroke-width="1.5"/>
<path d="M14.3535 12.3543C14.1583 12.159 14.1583 11.8424 14.3535 11.6472L17.6464 8.35429C17.8417 8.15902 18.1583 8.15902 18.3535 8.35429L21.6464 11.6472C21.8417 11.8424 21.8417 12.159 21.6464 12.3543L18.3535 15.6472C18.1583 15.8424 17.8417 15.8424 17.6464 15.6472L14.3535 12.3543Z" stroke="currentColor" stroke-width="1.5"/>
</svg>
