<svg width="24" height="24" viewBox="0 0 24 24" fill="none" xmlns="http://www.w3.org/2000/svg">
<path d="M9 5H6C5.73478 5 5.48043 5.10536 5.29289 5.29289C5.10536 5.48043 5 5.73478 5 6V19.5C5 19.7652 5.10536 20.0196 5.29289 20.2071C5.48043 20.3946 5.73478 20.5 6 20.5H18C18.2652 20.5 18.5196 20.3946 18.7071 20.2071C18.8946 20.0196 19 19.7652 19 19.5V6C19 5.73478 18.8946 5.48043 18.7071 5.29289C18.5196 5.10536 18.2652 5 18 5H15" stroke="currentColor" stroke-width="1.5" stroke-linecap="round" stroke-linejoin="round"/>
<path d="M14.5 3.5H9.5C8.94772 3.5 8.5 3.94772 8.5 4.5V6C8.5 6.55228 8.94772 7 9.5 7H14.5C15.0523 7 15.5 6.55228 15.5 6V4.5C15.5 3.94772 15.0523 3.5 14.5 3.5Z" stroke="currentColor" stroke-width="1.5" stroke-linecap="round" stroke-linejoin="round"/>
</svg>
