<svg width="24" height="24" viewBox="0 0 24 24" fill="none" xmlns="http://www.w3.org/2000/svg">
<path d="M19.5 4.5H4.5C3.94772 4.5 3.5 4.94772 3.5 5.5V18.5C3.5 19.0523 3.94772 19.5 4.5 19.5H19.5C20.0523 19.5 20.5 19.0523 20.5 18.5V5.5C20.5 4.94772 20.0523 4.5 19.5 4.5Z" stroke="currentColor" stroke-width="1.5" stroke-linecap="round" stroke-linejoin="round"/>
<path d="M8.5 9.5C9.32843 9.5 10 8.82843 10 8C10 7.17157 9.32843 6.5 8.5 6.5C7.67157 6.5 7 7.17157 7 8C7 8.82843 7.67157 9.5 8.5 9.5Z" stroke="currentColor" stroke-width="1.5" stroke-linecap="round" stroke-linejoin="round"/>
<path d="M4 17L9 12L13 16L16 13L20 17" stroke="currentColor" stroke-width="1.5" stroke-linecap="round" stroke-linejoin="round"/>
</svg>
