<svg width="24" height="24" viewBox="0 0 24 24" fill="none" xmlns="http://www.w3.org/2000/svg">
<path d="M9.91388 3L11.9139 5L9.91388 7" stroke="currentColor" stroke-width="1.5" stroke-linecap="round" stroke-linejoin="round"/>
<path d="M11.9137 5.00038C10.23 4.77871 8.52308 5.1767 7.11103 6.12021C5.69898 7.06371 4.67808 8.48837 4.23854 10.1288C3.799 11.7692 3.97079 13.5134 4.72191 15.0365C5.47303 16.5596 6.75225 17.7578 8.32124 18.4076" stroke="currentColor" stroke-width="1.5" stroke-linecap="round" stroke-linejoin="round"/>
<path d="M14.0861 21L12.0861 19L14.0861 17" stroke="currentColor" stroke-width="1.5" stroke-linecap="round" stroke-linejoin="round"/>
<path d="M12.0863 18.9996C13.77 19.2213 15.4769 18.8233 16.889 17.8798C18.301 16.9363 19.3219 15.5116 19.7615 13.8712C20.201 12.2308 20.0292 10.4866 19.2781 8.96349C18.527 7.44037 17.2477 6.24225 15.6788 5.59235" stroke="currentColor" stroke-width="1.5" stroke-linecap="round" stroke-linejoin="round"/>
</svg>
