<svg width="24" height="24" viewBox="0 0 24 24" fill="none" xmlns="http://www.w3.org/2000/svg">
<path d="M6.02501 6.13943C5.57349 6.02572 5.10161 6.22647 4.86901 6.63123L3.80607 8.48092C3.57375 8.88517 3.63642 9.39502 3.95967 9.73047L5.446 11.273C5.83664 11.6783 5.83664 12.3216 5.446 12.727L3.95967 14.2694C3.63642 14.605 3.57374 15.1148 3.80605 15.519L4.86901 17.3688C5.1016 17.7734 5.57348 17.9742 6.025 17.8605L8.09452 17.3393C8.64006 17.202 9.19574 17.524 9.34997 18.0669L9.936 20.1299C10.0636 20.5791 10.4724 20.8889 10.9379 20.8889H13.0621C13.5274 20.8889 13.9363 20.5791 14.064 20.1299L14.65 18.0669C14.8042 17.524 15.3599 17.202 15.9054 17.3393L17.975 17.8605C18.4266 17.9742 18.8984 17.7735 19.131 17.3688L20.1939 15.5191C20.4262 15.1149 20.3636 14.605 20.0403 14.2695L18.5539 12.727C18.1633 12.3216 18.1633 11.6783 18.5539 11.273L20.0403 9.7304C20.3636 9.39494 20.4262 8.8851 20.1939 8.48084L19.131 6.6312C18.8984 6.22645 18.4266 6.0257 17.975 6.13941L15.9054 6.66061C15.3599 6.79798 14.8042 6.47595 14.65 5.93303L14.064 3.8701C13.9363 3.42087 13.5274 3.11108 13.0621 3.11108H10.9379C10.4724 3.11108 10.0636 3.42087 9.936 3.8701L9.34997 5.93303C9.19574 6.47595 8.64006 6.79798 8.09452 6.66061L6.02501 6.13943Z" stroke="currentColor" stroke-width="1.5" stroke-linejoin="round"/>
<path d="M12 14.7777C13.5341 14.7777 14.7778 13.5341 14.7778 11.9999C14.7778 10.4658 13.5341 9.22217 12 9.22217C10.4659 9.22217 9.22222 10.4658 9.22222 11.9999C9.22222 13.5341 10.4659 14.7777 12 14.7777Z" stroke="currentColor" stroke-width="1.5" stroke-linejoin="round"/>
</svg>
